<?xml version="1.0" standalone="no"?><!DOCTYPE svg PUBLIC "-//W3C//DTD SVG 1.1//EN" "http://www.w3.org/Graphics/SVG/1.1/DTD/svg11.dtd"><svg t="1750517580236" class="icon" viewBox="0 0 1024 1024" version="1.1" xmlns="http://www.w3.org/2000/svg" p-id="5742" xmlns:xlink="http://www.w3.org/1999/xlink" width="200" height="200"><path d="M887.466667 170.666667H136.533333a68.266667 68.266667 0 0 0-68.266666 68.266666v546.133334a68.266667 68.266667 0 0 0 68.266666 68.266666h750.933334a68.266667 68.266667 0 0 0 68.266666-68.266666V238.933333a68.266667 68.266667 0 0 0-68.266666-68.266666zM136.533333 238.933333h750.933334v546.133334H136.533333V238.933333z" fill="#444444" p-id="5743"></path><path d="M619.793067 340.8384c68.334933 0 114.875733 28.040533 137.847466 75.861333 15.189333 31.624533 18.1248 67.413333 13.8752 98.423467-3.925333 28.928-14.677333 57.378133-31.573333 80.759467l-0.904533 1.194666 86.818133 75.332267a51.848533 51.848533 0 0 1 17.749333 35.703467l0.136534 3.447466v73.0112a34.133333 34.133333 0 0 1-68.181334 2.56l-0.085333-2.56-0.017067-65.501866-108.288-93.969067a34.133333 34.133333 0 0 1-0.3072-51.3024l2.167467-1.774933c18.295467-13.738667 31.232-39.492267 34.850133-66.116267 2.594133-18.961067 0.699733-41.984-7.7824-59.665067-11.3664-23.671467-33.723733-37.137067-76.305066-37.137066-41.6768 0-63.010133 13.789867-73.898667 38.5536-7.953067 18.056533-9.506133 39.611733-7.4752 59.357866 2.030933 19.575467 15.2576 47.837867 30.941867 61.917867l2.781866 2.321067a34.133333 34.133333 0 0 1 3.584 50.824533l-2.030933 1.911467-108.987733 95.0272v65.553066a34.133333 34.133333 0 0 1-31.573334 34.048l-2.56 0.085334a34.133333 34.133333 0 0 1-34.030933-31.573334l-0.085333-2.56v-73.045333c0-13.824 5.5296-27.016533 15.2576-36.7104l2.525866-2.3552 88.234667-76.936533-0.341333-0.477867c-16.418133-23.313067-27.562667-51.541333-31.061334-76.407467l-0.5632-4.625066c-3.140267-30.464-0.8192-62.702933 12.885334-93.8496 21.845333-49.664 67.754667-79.325867 136.379733-79.325867z" fill="#444444" p-id="5744"></path><path d="M409.6 324.266667v34.133333a34.133333 34.133333 0 0 1-34.133333 34.133333H204.8a34.133333 34.133333 0 0 1-34.133333-34.133333v-34.133333h238.933333z" fill="#00B386" p-id="5745"></path></svg>