<?xml version="1.0" standalone="no"?><!DOCTYPE svg PUBLIC "-//W3C//DTD SVG 1.1//EN" "http://www.w3.org/Graphics/SVG/1.1/DTD/svg11.dtd"><svg t="1750517400901" class="icon" viewBox="0 0 1024 1024" version="1.1" xmlns="http://www.w3.org/2000/svg" p-id="3693" xmlns:xlink="http://www.w3.org/1999/xlink" width="200" height="200"><path d="M512 68.266667C266.922667 68.266667 68.266667 266.922667 68.266667 512s198.656 443.733333 443.733333 443.733333 443.733333-198.656 443.733333-443.733333S757.077333 68.266667 512 68.266667z m0 68.266666c207.36 0 375.466667 168.106667 375.466667 375.466667s-168.106667 375.466667-375.466667 375.466667S136.533333 719.36 136.533333 512 304.64 136.533333 512 136.533333z" fill="#2c2c2c" p-id="3694"></path><path d="M512 648.533333a34.133333 34.133333 0 1 1 0 68.266667 34.133333 34.133333 0 0 1 0-68.266667z m0-324.266666a34.133333 34.133333 0 0 1 34.133333 34.133333v221.866667h-68.266666V358.4a34.133333 34.133333 0 0 1 34.133333-34.133333z" fill="#2c2c2c" p-id="3695"></path></svg>