<?xml version="1.0" standalone="no"?><!DOCTYPE svg PUBLIC "-//W3C//DTD SVG 1.1//EN" "http://www.w3.org/Graphics/SVG/1.1/DTD/svg11.dtd"><svg t="1750778586573" class="icon" viewBox="0 0 1024 1024" version="1.1" xmlns="http://www.w3.org/2000/svg" p-id="1207" data-spm-anchor-id="a313x.collections_detail.0.i0.55123a81dwPVCp" xmlns:xlink="http://www.w3.org/1999/xlink" width="200" height="200"><path d="M512.3 683.1c-112.7 0-204.4-91.7-204.4-204.4V299.3c0-112.7 91.7-204.4 204.4-204.4s204.4 91.7 204.4 204.4v179.5c0 112.6-91.7 204.3-204.4 204.3z m0-537.6c-84.8 0-153.8 69-153.8 153.8v179.5c0 84.8 69 153.7 153.8 153.7S666 563.5 666 478.8V299.3c0-84.8-68.9-153.8-153.7-153.8z" fill="#3D3A3A" p-id="1208" data-spm-anchor-id="a313x.collections_detail.0.i1.55123a81dwPVCp" class="selected"></path><path d="M512.3 790.5c-139.4 0-264.1-83.7-317.6-213.2-5.4-12.9 0.8-27.7 13.7-33.1 13-5.4 27.7 0.8 33.1 13.7 45.7 110.5 152 181.9 270.9 181.9 118.8 0 225.1-71.4 270.9-181.9 5.3-12.9 20.1-19.1 33.1-13.7 12.9 5.3 19.1 20.1 13.7 33.1-53.7 129.5-178.4 213.2-317.8 213.2z" fill="#3D3A3A" p-id="1209"></path><path d="M512.3 929.5c-14 0-25.3-11.3-25.3-25.3V793.4c0-14 11.3-25.3 25.3-25.3s25.3 11.3 25.3 25.3v110.8c0 14-11.3 25.3-25.3 25.3z" fill="#3D3A3A" p-id="1210"></path></svg>